<svg id="google" xmlns="http://www.w3.org/2000/svg" width="101.929" height="101.929" viewBox="0 0 101.929 101.929">
  <path id="Path_958" data-name="Path 958" d="M23.89,131.229A26.909,26.909,0,0,1,27.7,117.4V100.215H10.516a50.99,50.99,0,0,0,0,62.027H27.7V145.06A26.909,26.909,0,0,1,23.89,131.229Z" transform="translate(0 -80.264)" fill="#fbbd00"/>
  <path id="Path_959" data-name="Path 959" d="M207.945,376.751,196,388.7l11.945,11.945a50.58,50.58,0,0,0,31.014-10.516V372.961H221.795A27.072,27.072,0,0,1,207.945,376.751Z" transform="translate(-156.98 -298.712)" fill="#0f9d58"/>
  <path id="Path_960" data-name="Path 960" d="M70.005,325.477,52.823,342.659a51.79,51.79,0,0,0,4.411,5.024A50.632,50.632,0,0,0,93.271,362.61V338.72A27.086,27.086,0,0,1,70.005,325.477Z" transform="translate(-42.307 -260.681)" fill="#31aa52"/>
  <path id="Path_961" data-name="Path 961" d="M306.964,209.005a51.411,51.411,0,0,0-.835-9.233l-.448-2.448H256v23.89h24.179A26.952,26.952,0,0,1,269.85,232.29l17.164,17.164a51.77,51.77,0,0,0,5.024-4.411A50.631,50.631,0,0,0,306.964,209.005Z" transform="translate(-205.036 -158.041)" fill="#3c79e6"/>
  <path id="Path_962" data-name="Path 962" d="M227.09,31.819l2.111,2.111,16.892-16.892-2.111-2.111A50.631,50.631,0,0,0,207.945,0L196,11.945,207.945,23.89A26.9,26.9,0,0,1,227.09,31.819Z" transform="translate(-156.98)" fill="#cf2d48"/>
  <path id="Path_963" data-name="Path 963" d="M93.271,23.89V0A50.632,50.632,0,0,0,57.233,14.927a51.729,51.729,0,0,0-4.411,5.024L70,37.133A27.087,27.087,0,0,1,93.271,23.89Z" transform="translate(-42.306 0)" fill="#eb4132"/>
</svg>
