<svg id="loupe" xmlns="http://www.w3.org/2000/svg" width="1.833" height="1.335" viewBox="0 0 133.833 134.335">
  <g id="Group_1208" data-name="Group 1208" transform="translate(0)">
    <path id="Path_935" data-name="Path 935" d="M130.27,105.86,108.16,83.75a61,61,0,0,0,6.7-26.8A56.95,56.95,0,1,0,57.91,113.9a61,61,0,0,0,26.8-6.7l22.11,22.11a16.192,16.192,0,0,0,23.45,0A17.46,17.46,0,0,0,130.27,105.86ZM57.91,100.5a43.55,43.55,0,1,1,43.55-43.55A43.463,43.463,0,0,1,57.91,100.5Z" transform="translate(-0.96)" fill="#f58634"/>
  </g>
</svg>
