<svg id="menu" xmlns="http://www.w3.org/2000/svg" width="2.835" height="1.21" viewBox="0 0 275.835 199.21">
  <path id="Path_832" data-name="Path 832" d="M8.4,145.654H193.217c4.637,0,8.4-5.149,8.4-11.493s-3.764-11.493-8.4-11.493H8.4c-4.637,0-8.4,5.149-8.4,11.493S3.764,145.654,8.4,145.654Zm0,0" transform="translate(74.217 -34.555)" fill="#201e1e"/>
  <path id="Path_833" data-name="Path 833" d="M11.493,22.986H264.342a11.493,11.493,0,1,0,0-22.986H11.493a11.493,11.493,0,1,0,0,22.986Zm0,0" transform="translate(0)" fill="#201e1e"/>
  <path id="Path_834" data-name="Path 834" d="M5.747,268.318H132.173c3.172,0,5.747-5.149,5.747-11.493s-2.574-11.493-5.747-11.493H5.747C2.574,245.332,0,250.481,0,256.825S2.574,268.318,5.747,268.318Zm0,0" transform="translate(137.915 -69.108)" fill="#201e1e"/>
</svg>
