<svg xmlns="http://www.w3.org/2000/svg" width="1.565" height="1.987" viewBox="0 0 184.565 145.987">
  <g id="script" opacity="0.53">
    <g id="Group_1210" data-name="Group 1210" transform="translate(69.47 27.68)">
      <g id="Group_1209" data-name="Group 1209" transform="translate(0 0)">
        <path id="Path_936" data-name="Path 936" d="M253.011,130.3H195.419a2.705,2.705,0,1,0,0,5.411h57.591a2.705,2.705,0,1,0,0-5.411Z" transform="translate(-192.714 -130.296)" fill="#fff"/>
      </g>
    </g>
    <g id="Group_1212" data-name="Group 1212" transform="translate(47.759 27.68)">
      <g id="Group_1211" data-name="Group 1211" transform="translate(0 0)">
        <path id="Path_937" data-name="Path 937" d="M144.314,130.3h-9.122a2.705,2.705,0,0,0,0,5.411h9.122a2.705,2.705,0,0,0,0-5.411Z" transform="translate(-132.486 -130.296)" fill="#fff"/>
      </g>
    </g>
    <g id="Group_1214" data-name="Group 1214" transform="translate(47.759 110.606)">
      <g id="Group_1213" data-name="Group 1213">
        <path id="Path_938" data-name="Path 938" d="M163.489,360.341h-28.3a2.705,2.705,0,0,0,0,5.411h28.3a2.705,2.705,0,0,0,0-5.411Z" transform="translate(-132.486 -360.341)" fill="#fff"/>
      </g>
    </g>
    <g id="Group_1216" data-name="Group 1216" transform="translate(47.759 82.964)">
      <g id="Group_1215" data-name="Group 1215" transform="translate(0 0)">
        <path id="Path_939" data-name="Path 939" d="M174.843,283.66H135.191a2.705,2.705,0,0,0,0,5.411h39.651a2.705,2.705,0,1,0,0-5.411Z" transform="translate(-132.486 -283.66)" fill="#fff"/>
      </g>
    </g>
    <g id="Group_1218" data-name="Group 1218" transform="translate(47.759 55.322)">
      <g id="Group_1217" data-name="Group 1217">
        <path id="Path_940" data-name="Path 940" d="M194.144,206.977H135.191a2.705,2.705,0,1,0,0,5.411h58.952a2.705,2.705,0,1,0,0-5.411Z" transform="translate(-132.486 -206.977)" fill="#fff"/>
      </g>
    </g>
    <g id="Group_1220" data-name="Group 1220" transform="translate(0 0)">
      <g id="Group_1219" data-name="Group 1219" transform="translate(0 0)">
        <path id="Path_941" data-name="Path 941" d="M160.616,53.51H48.806A17.981,17.981,0,0,0,30.846,71.471V177.922H2.7A2.7,2.7,0,0,0,0,180.654C.106,191.4,7.826,199.5,17.956,199.5H130.107a17.981,17.981,0,0,0,17.961-17.961V148.753a2.706,2.706,0,0,0-5.411,0v32.783a12.564,12.564,0,0,1-12.55,12.55h-.341c-7.076,0-12.469-5.8-12.546-13.485a2.706,2.706,0,0,0-2.705-2.679H36.258V71.471a12.564,12.564,0,0,1,12.55-12.55H147.78c-.079.081-.154.166-.232.249-.094.1-.19.2-.282.3s-.192.22-.287.331-.183.212-.272.32-.18.228-.269.342-.174.221-.258.334-.168.235-.251.353-.165.231-.244.349-.156.241-.233.363-.155.24-.229.363-.144.249-.215.374-.144.248-.212.375-.132.256-.2.385-.132.256-.194.385-.12.264-.179.4-.12.262-.176.4-.108.271-.161.407-.107.267-.156.4-.1.281-.143.422-.093.27-.136.407-.083.291-.124.437-.079.271-.115.409-.071.3-.106.458c-.031.134-.065.268-.092.4-.032.159-.058.32-.086.48-.023.133-.05.264-.07.4-.026.171-.045.345-.066.517-.015.125-.034.248-.047.373-.019.193-.031.389-.045.584-.007.107-.019.213-.024.321q-.023.455-.023.916V95.484a2.705,2.705,0,0,0,5.411,0v-20.4H175.9a2.7,2.7,0,0,0,2.705-2.732C178.5,61.61,170.775,53.51,160.616,53.51ZM112,183.333q.056.42.128.833c.016.092.035.183.053.275.034.182.068.364.107.544.023.108.049.214.074.32.037.162.075.324.117.483.029.112.06.223.091.334.042.152.085.3.13.454.034.113.07.225.106.337q.07.219.146.437.058.167.119.333.079.215.163.427c.043.107.085.215.129.321.059.143.121.284.184.426.045.1.089.2.136.3.068.148.141.293.212.439.045.09.088.181.134.27.088.171.18.338.273.505.034.061.066.123.1.183q.193.34.4.668c.032.051.066.1.1.151.107.168.216.334.328.5.052.075.106.149.159.223.1.136.193.272.293.405.06.08.122.158.183.237.1.124.194.248.293.37.066.08.132.158.2.237q.149.176.3.348c.069.077.139.153.209.229.05.054.1.11.149.164H17.956c-6.209,0-11.123-4.465-12.285-10.753H112Zm36.2-113.66c0-.018,0-.037.005-.056.012-.083.027-.164.041-.246.019-.115.039-.231.062-.345.017-.087.037-.174.056-.26.024-.107.048-.214.074-.321.022-.089.046-.178.07-.267s.056-.2.086-.3.056-.181.085-.271.063-.191.1-.286.065-.184.1-.275.07-.178.106-.267.076-.187.116-.28.074-.164.111-.245.088-.193.135-.288c.035-.071.072-.14.108-.21.053-.1.106-.208.162-.31.022-.04.045-.078.067-.117a12.568,12.568,0,0,1,.824-1.276l.008-.012c.1-.13.2-.258.3-.385l.048-.061c.1-.123.2-.243.3-.361l.058-.066q.158-.178.323-.35l.054-.057q.171-.176.348-.346l.04-.038q.187-.177.381-.348l.013-.012a12.545,12.545,0,0,1,5.946-2.88h0q.276-.051.557-.09l.034,0q.268-.037.539-.062l.083-.006c.165-.014.331-.027.5-.035.1,0,.194-.005.291-.008s.209-.007.314-.007c6.209,0,11.123,4.465,12.285,10.753Z" transform="translate(0 -53.51)" fill="#fff"/>
      </g>
    </g>
    <g id="Group_1222" data-name="Group 1222" transform="translate(96.971 47.137)">
      <g id="Group_1221" data-name="Group 1221">
        <path id="Path_942" data-name="Path 942" d="M356.6,187c0-.031,0-.063,0-.094a2.688,2.688,0,0,0-.133-.732c0-.012,0-.023-.009-.035s-.009-.018-.012-.027a2.729,2.729,0,0,0-.149-.344c-.007-.014-.015-.026-.023-.04a2.726,2.726,0,0,0-.177-.281l-.041-.058a2.723,2.723,0,0,0-.231-.266l-.056-.053a2.7,2.7,0,0,0-.247-.211l-.034-.027a2.765,2.765,0,0,0-.307-.191l-.062-.032a2.646,2.646,0,0,0-.336-.145h0a2.746,2.746,0,0,0-.358-.094l-.081-.014a2.718,2.718,0,0,0-.374-.038c-22.637-.586-52.156,4.863-67.079,21.9-6.531,7.456-9.545,16.915-12.459,26.062q-.358,1.123-.717,2.244-.015.047-.029.1l-4.573,16.239a2.705,2.705,0,1,0,5.209,1.466l4.241-15.062a84.245,84.245,0,0,1,15-5.1c2.925-.8,6.24-1.7,10.252-2.931,8.673-2.668,25.311-13.828,32.969-22.114a184.927,184.927,0,0,1,18.843-18.01c.008-.006.013-.014.021-.02a2.747,2.747,0,0,0,.268-.258l.015-.016a2.744,2.744,0,0,0,.225-.3l.037-.058a2.7,2.7,0,0,0,.3-.671c.007-.023.013-.045.019-.068a2.691,2.691,0,0,0,.073-.36c0-.005,0-.01,0-.015.01-.083.017-.168.02-.254C356.6,187.058,356.6,187.027,356.6,187Zm-65.641,22.782c6.3-7.189,15.949-12.608,28.688-16.106a106.1,106.1,0,0,1,10.77-2.336,209.3,209.3,0,0,0-23.595,13.73,216.441,216.441,0,0,0-23.5,17.966A44.406,44.406,0,0,1,290.956,209.779Zm41.845-6.337c-7.452,8.065-23.548,18.45-30.585,20.614-3.927,1.208-7.2,2.1-10.081,2.882-2.61.71-4.985,1.356-7.333,2.1,1.05-1.006,2.282-2.134,3.734-3.4a216.5,216.5,0,0,1,21.29-16.073c13.656-9.123,26.014-15.526,35.08-18.3C340.967,194.892,337.094,198.8,332.8,203.443Z" transform="translate(-269.006 -184.272)" fill="#fff"/>
      </g>
    </g>
  </g>
</svg>
